<?xml version="1.0" encoding="UTF-8" standalone="no"?>
<!-- Created with Inkscape (http://www.inkscape.org/) -->

<svg
   width="500"
   height="500"
   viewBox="0 0 132.29167 132.29167"
   version="1.1"
   id="svg1"
   inkscape:version="1.4 (86a8ad7, 2024-10-11)"
   sodipodi:docname="BINGOlogo.svg"
   xmlns:inkscape="http://www.inkscape.org/namespaces/inkscape"
   xmlns:sodipodi="http://sodipodi.sourceforge.net/DTD/sodipodi-0.dtd"
   xmlns="http://www.w3.org/2000/svg"
   xmlns:svg="http://www.w3.org/2000/svg">
  <sodipodi:namedview
     id="namedview1"
     pagecolor="#ffffff"
     bordercolor="#000000"
     borderopacity="0.25"
     inkscape:showpageshadow="2"
     inkscape:pageopacity="0.0"
     inkscape:pagecheckerboard="0"
     inkscape:deskcolor="#d1d1d1"
     inkscape:document-units="px"
     showgrid="true"
     inkscape:zoom="1.1610362"
     inkscape:cx="229.96699"
     inkscape:cy="296.71771"
     inkscape:window-width="1920"
     inkscape:window-height="1009"
     inkscape:window-x="-8"
     inkscape:window-y="-8"
     inkscape:window-maximized="1"
     inkscape:current-layer="layer2">
    <inkscape:grid
       id="grid1"
       units="px"
       originx="0"
       originy="0"
       spacingx="0.26458333"
       spacingy="0.26458333"
       empcolor="#0099e5"
       empopacity="0.30196078"
       color="#0099e5"
       opacity="0.14901961"
       empspacing="7"
       enabled="true"
       visible="true" />
  </sodipodi:namedview>
  <defs
     id="defs1" />
  <g
     inkscape:label="Layer 1"
     inkscape:groupmode="layer"
     id="layer1" />
  <g
     inkscape:groupmode="layer"
     id="layer2"
     inkscape:label="Layer 2">
    <g
       id="path1"
       style="fill:#000000">
      <path
         style="stroke-linecap:round;stroke-linejoin:round;stroke-miterlimit:3.1;paint-order:stroke markers fill;fill:#000000"
         d="M 64.324219,2.3886719 C 53.853913,2.6719829 43.306954,5.4129756 33.609375,10.849609 a 0.13031749,0.13031749 0 0 0 -0.01758,0.02149 0.13031749,0.13031749 0 0 0 -0.01563,-0.0039 C 2.5541181,28.281415 -7.9956279,66.715334 10.017578,96.707031 28.030785,126.69873 67.781439,136.89792 98.808594,119.49219 129.83575,102.08646 140.39699,63.654832 122.39258,33.658203 110.01454,13.035521 87.358892,1.7653877 64.324219,2.3886719 Z m 0.0078,0.2597656 C 87.27629,2.0276392 109.84254,13.254685 122.16992,33.792969 140.10065,63.666837 129.58806,101.92762 98.681641,119.26563 67.775218,136.60363 28.179724,126.44318 10.240234,96.574219 -7.6992548,66.705259 2.8037396,28.440214 33.705078,11.09375 a 0.13031749,0.13031749 0 0 0 0.02148,-0.02148 0.13031749,0.13031749 0 0 0 0.0098,0.0039 C 43.396173,5.6606925 53.902823,2.9306185 64.332031,2.6484375 Z"
         id="path30" />
      <path
         style="fill:#000000;stroke-linecap:round;stroke-linejoin:round;stroke-miterlimit:3.1;paint-order:stroke markers fill"
         d="M 33.672262,10.962811 A 64.835548,62.67065 0 0 1 122.2813,33.725245 64.835548,62.67065 0 0 1 98.745118,119.3788 64.835548,62.67065 0 0 1 10.129406,96.640638 a 64.835548,62.67065 0 0 1 23.511078,-85.66"
         id="path31" />
    </g>
    <g
       id="text2"
       transform="matrix(0.79927702,0,0,1.2511307,-0.22788552,-0.22788552)">
      <path
         style="-inkscape-font-specification:'Segoe Print, Bold';stroke-linecap:round;stroke-linejoin:round;stroke-miterlimit:3.1;paint-order:stroke markers fill"
         d="m 115.00977,34.173828 c -3.6931,0 -7.39006,1.172731 -11.08789,3.509766 -3.67259,2.330392 -6.857822,5.517064 -9.556646,9.548828 a 0.11786429,0.11786429 0 0 0 -0.02539,0.0098 c -2.544548,3.890791 -3.820313,7.960401 -3.820313,12.197266 0,2.689211 0.784364,4.824717 2.355469,6.380859 1.585223,1.555313 3.721078,2.332032 6.380859,2.332032 3.874481,0 8.244521,-1.824573 13.091801,-5.365235 -0.21588,1.162596 -0.48541,2.501254 -0.83203,4.095703 -0.20636,0.950714 -0.36141,1.69501 -0.46485,2.234375 -0.10344,0.539366 -0.1582,0.860008 -0.1582,1.017579 0,0.785974 0.35432,1.480071 1.03711,2.05664 0.69511,0.574223 1.462,0.867188 2.28515,0.867188 0.51936,0 0.99179,-0.124327 1.40821,-0.371094 0.41468,-0.230939 0.75422,-0.562903 1.01367,-0.990234 0.26382,-0.434533 0.39874,-0.984681 0.41406,-1.646485 v -0.002 c 0.0297,-0.653056 0.0449,-1.8237 0.0449,-3.517578 0,-0.898153 0.1743,-2.368411 0.52735,-4.398438 0.3531,-2.045031 0.7071,-3.670167 1.05859,-4.871093 a 0.11786429,0.11786429 0 0 0 -0.002,-0.05859 c 0.33262,-1.219056 0.69079,-2.268164 1.07812,-3.128906 a 0.11786429,0.11786429 0 0 0 0.002,-0.002 c 0.50337,-1.169602 0.75976,-2.012638 0.75976,-2.566407 0,-0.684467 -0.26272,-1.223963 -0.77539,-1.572265 -0.51267,-0.348302 -1.25806,-0.511719 -2.23633,-0.511719 -0.85202,0 -1.54123,0.140553 -2.0664,0.433594 -0.52774,0.287854 -0.84599,0.876977 -0.9668,1.722656 -0.20528,1.392166 -0.51444,2.667217 -0.92383,3.822266 -0.38275,1.119898 -1.57131,2.400989 -3.58008,3.808593 -2.01196,1.409844 -3.90334,2.44312 -5.67382,3.101563 -1.77388,0.659706 -3.29336,0.988281 -4.554693,0.988281 -1.214539,0 -2.101849,-0.348643 -2.695312,-1.041016 -0.593463,-0.692372 -0.900391,-1.745013 -0.900391,-3.171875 0,-2.714523 0.883696,-5.566862 2.658203,-8.558593 1.789563,-3.00705 4.113243,-5.602686 6.974613,-7.789063 2.87572,-2.200805 5.4187,-3.291015 7.61914,-3.291015 0.6765,0 1.16993,0.137869 1.49414,0.394531 a 0.11786429,0.11786429 0 0 0 0.006,0.0039 c 0.34199,0.24623 0.65675,0.690751 0.93164,1.341797 0.2537,0.596958 0.49776,1.007078 0.75976,1.236328 a 0.11786429,0.11786429 0 0 0 0.004,0.0039 c 0.26648,0.216517 0.65463,0.3125 1.15625,0.3125 0.82195,0 1.61111,-0.579997 2.37305,-1.685547 0.7748,-1.102602 1.16992,-2.118664 1.16992,-3.050781 0,-1.115767 -0.58281,-2.044989 -1.71094,-2.751953 v 0.002 c -1.13071,-0.723654 -2.65727,-1.080078 -4.57226,-1.080078 z m 0,0.236328 c 1.88576,0 3.36627,0.350436 4.44531,1.041016 a 0.11786429,0.11786429 0 0 0 0,0.002 c 1.0816,0.677806 1.60351,1.515734 1.60351,2.550781 0,0.865141 -0.37162,1.838341 -1.1289,2.916016 -0.7407,1.074729 -1.46955,1.583984 -2.17969,1.583984 -0.46873,0 -0.79877,-0.09258 -1.00391,-0.257812 -2.6e-4,-2.27e-4 2.6e-4,-0.0017 0,-0.002 -0.20923,-0.18351 -0.45236,-0.567589 -0.69921,-1.148438 -0.28404,-0.672714 -0.61482,-1.153045 -1.00782,-1.4375 -4.2e-4,-3.36e-4 -0.002,3.36e-4 -0.002,0 -0.38286,-0.302447 -0.93119,-0.445312 -1.63867,-0.445312 -2.27797,0 -4.86264,1.119213 -7.76172,3.33789 -2.88396,2.203642 -5.23021,4.822559 -7.035158,7.855469 -1.790542,3.018765 -2.689453,5.914052 -2.689453,8.679687 0,1.460534 0.311086,2.572895 0.955078,3.324219 0.643993,0.751325 1.614629,1.125 2.875,1.125 1.301973,0 2.845553,-0.335813 4.636723,-1.001953 1.79457,-0.667401 3.70206,-1.712233 5.72656,-3.130859 2.02695,-1.420348 3.25477,-2.716508 3.66797,-3.923828 v -0.002 c 0.41509,-1.17154 0.72648,-2.459852 0.93359,-3.865234 0.1149,-0.804261 0.40115,-1.306345 0.8457,-1.548828 a 0.11786429,0.11786429 0 0 0 0.002,0 c 0.47639,-0.266219 1.12652,-0.40625 1.95312,-0.40625 0.95158,0 1.65322,0.165402 2.10547,0.472656 0.45225,0.307255 0.67188,0.750308 0.67188,1.376953 0,0.477445 -0.24382,1.314665 -0.74219,2.472657 -0.40091,0.891183 -0.77148,1.964722 -1.11133,3.220703 a 0.11786429,0.11786429 0 0 0 0.0137,0.04492 c -0.35206,1.211171 -0.70223,2.817675 -1.05273,4.847656 -0.35407,2.035897 -0.53321,3.510886 -0.5332,4.439453 0,1.693451 -0.0137,2.866228 -0.043,3.509766 a 0.11786429,0.11786429 0 0 0 -0.002,0.002 c -0.0144,0.633593 -0.14215,1.143251 -0.3789,1.533203 -0.24092,0.396807 -0.54997,0.697248 -0.92969,0.908203 a 0.11786429,0.11786429 0 0 0 -0.002,0.002 c -0.37909,0.224645 -0.80668,0.335938 -1.28907,0.335938 -0.76724,0 -1.47307,-0.268 -2.13281,-0.8125 -0.64307,-0.543034 -0.95312,-1.158351 -0.95312,-1.875 0,-0.09287 0.0495,-0.436615 0.15234,-0.972657 0.1028,-0.536041 0.25676,-1.278851 0.46289,-2.228515 0.36849,-1.695036 0.66346,-3.147623 0.88477,-4.357422 a 0.11786429,0.11786429 0 0 0 -0.18555,-0.117188 c -4.92315,3.644597 -9.32039,5.457032 -13.187501,5.457032 -2.614133,0 -4.676965,-0.75481 -6.214843,-2.263672 -1.522532,-1.508032 -2.285157,-3.569259 -2.285157,-6.212891 0,-4.179847 1.256217,-8.191223 3.767578,-12.041016 a 0.11786429,0.11786429 0 0 0 0.01172,-0.0039 c 2.687984,-4.024631 5.858543,-7.193639 9.511723,-9.511719 3.66796,-2.318153 7.31965,-3.472656 10.96289,-3.472656 z m -30.736333,0.757813 c -0.731669,0 -1.461504,0.230335 -2.183593,0.68164 a 0.11786429,0.11786429 0 0 0 -0.002,0 c -0.73484,0.469047 -1.128324,1.384667 -1.203125,2.701172 -0.07328,1.36308 -0.279124,2.92759 -0.617188,4.691406 -0.412703,2.122587 -0.854738,4.628093 -1.326172,7.515625 -0.644216,3.936879 -1.234961,7.094568 -1.78125,9.595704 C 75.137301,57.831095 72.8819,54.558269 70.363281,50.427734 67.788548,46.205172 66.19543,42.823495 65.582031,40.296875 a 0.11786429,0.11786429 0 0 0 0,-0.002 c -0.400706,-1.58798 -0.886046,-2.555327 -1.541015,-2.882813 -0.600157,-0.300078 -1.141023,-0.453125 -1.623047,-0.453125 -0.727734,0 -1.386337,0.198388 -1.964844,0.59375 -0.558308,0.377236 -0.918644,0.784872 -1.0625,1.232422 a 0.11786429,0.11786429 0 0 0 -0.002,0.0039 c -0.125271,0.422785 -0.203713,1.18151 -0.248047,2.304688 a 0.11786429,0.11786429 0 0 0 0,0.002 c -0.05846,2.309244 -0.704515,6.418637 -1.941406,12.308594 l -1.613282,7.445312 a 0.11786429,0.11786429 0 0 0 0,0.0059 l -0.02344,0.132812 c -0.587917,2.207359 -0.884766,3.906135 -0.884766,5.101563 0,1.498393 0.18798,2.503406 0.623047,3.035156 a 0.11786429,0.11786429 0 0 0 0,0.002 c 0.440934,0.53542 1.168381,0.792969 2.146485,0.792969 0.648261,0 1.303014,-0.37013 1.96289,-1.074219 l 0.002,-0.002 c 0.69064,-0.722579 1.075651,-1.884336 1.179688,-3.474609 0.08825,-1.308996 0.191988,-2.309082 0.308594,-2.994141 a 0.11786429,0.11786429 0 0 0 0,-0.0039 l 0.265625,-1.988282 c 0.890795,-6.551655 1.543129,-10.604144 1.982421,-12.490234 3.207396,5.844814 6.540103,10.990111 10.00586,15.398438 0.331031,0.432053 0.853128,1.262553 1.558594,2.482421 0.458688,0.813644 0.895998,1.474299 1.314453,1.982422 a 0.11786429,0.11786429 0 0 0 0.002,0.002 c 0.41699,0.491453 0.740742,0.795755 1.015625,0.916016 a 0.11786429,0.11786429 0 0 0 0.002,0 c 0.278272,0.114583 0.68578,0.164063 1.238281,0.164063 0.9292,0 1.68905,-0.1878 2.273438,-0.572266 0.586465,-0.361445 0.969123,-0.759637 1.128906,-1.207031 0.155985,-0.436759 0.228516,-1.0802 0.228516,-1.941407 v -0.75 c 0,-0.352547 0.109302,-1.308452 0.330078,-2.828125 0.220775,-1.519672 0.552265,-3.613316 0.99414,-6.279296 0.883465,-5.330233 1.788428,-9.679424 2.714844,-13.046875 0.428842,-1.463977 0.646484,-2.595506 0.646484,-3.41211 10e-7,-1.01908 -0.226447,-1.876781 -0.683593,-2.5625 -0.440318,-0.697144 -0.997279,-1.070312 -1.644532,-1.070312 z m -56.966796,0.08984 c -4.519298,0 -8.834061,0.655762 -12.941407,1.970704 -2.053735,0.657491 -3.596968,1.333968 -4.6367184,2.037109 -1.0397505,0.703141 -1.5878906,1.446098 -1.5878906,2.230469 0,0.252892 0.055278,0.524483 0.1621094,0.814453 0.1124953,0.305344 0.3446484,0.617537 0.6914062,0.949219 a 0.11786429,0.11786429 0 0 0 0.00195,0.002 c 0.3597328,0.328452 0.7897115,0.474939 1.2617194,0.427734 l 0.585937,-0.04297 c 7.29e-4,0 0.0012,-5e-6 0.002,0 0.04792,3.58e-4 0.08031,0.01191 0.115235,0.04102 0.03545,0.02954 0.07367,0.08261 0.105468,0.162109 0.0636,0.158991 0.101563,0.42277 0.101563,0.783203 0,0.07557 -0.02003,0.310357 -0.05859,0.675782 -0.03856,0.365424 -0.09653,0.869274 -0.173828,1.509765 -0.154602,1.280984 -0.385974,3.111273 -0.695313,5.490235 -0.6036789,4.755813 -1.2286253,8.46605 -1.8749998,11.125 -0.2512574,1.034589 -0.3789063,1.747433 -0.3789063,2.169922 0,1.289498 0.2468712,2.27224 0.7636719,2.939453 0.5168007,0.667213 1.3020772,1.001953 2.3144532,1.001953 0.759277,0 1.443759,-0.229804 2.03711,-0.685547 l 0.002,-0.002 c 0.623306,-0.465014 0.965154,-1.463436 1.083984,-2.978516 a 0.11786429,0.11786429 0 0 0 0,-0.002 l 0.220703,-2.982422 a 0.11786429,0.11786429 0 0 0 0,-0.0078 c 0,-0.452997 0.109266,-1.574847 0.330078,-3.333985 0.220813,-1.759137 0.552254,-4.163874 0.994141,-7.21289 0.441897,-3.049093 0.799914,-5.415931 1.072265,-7.101563 0.272352,-1.685632 0.464289,-2.703612 0.558594,-3 0.08832,-0.277565 0.37637,-0.560898 0.892578,-0.826172 0.516208,-0.265273 1.253223,-0.510809 2.205078,-0.730468 1.9064,-0.439939 3.848089,-0.658204 5.828125,-0.658204 1.047173,0 1.8202,0.181564 2.320313,0.525391 0.500113,0.343828 0.744141,0.842325 0.744141,1.542969 0,1.075152 -0.828186,2.45123 -2.527344,4.091797 -1.700564,1.627263 -3.396706,2.77467 -5.087891,3.445312 -1.506373,0.612888 -2.639863,1.162881 -3.402344,1.65625 -0.38124,0.246685 -0.670285,0.478925 -0.86914,0.703125 -0.198856,0.2242 -0.310547,0.444666 -0.310547,0.666016 0,1.046926 0.20431,1.770435 0.662109,2.146484 a 0.11786429,0.11786429 0 0 0 0.002,0.002 c 0.47579,0.377351 1.396633,0.533203 2.791016,0.533203 0.536693,0 1.321807,-0.235967 2.388672,-0.695312 0.522228,-0.228015 0.928366,-0.398537 1.216797,-0.511719 0.144215,-0.05659 0.259991,-0.09767 0.34375,-0.125 0.08376,-0.02733 0.147265,-0.03711 0.138672,-0.03711 1.481056,0 2.646963,0.402239 3.521484,1.205078 a 0.11786429,0.11786429 0 0 0 0,0.002 c 0.879897,0.79335 1.310547,1.68312 1.310547,2.695313 0,1.673569 -1.066538,3.344138 -3.246094,5.011718 -2.185098,1.657155 -3.988318,2.472657 -5.386719,2.472657 h -1.083984 c -1.55355,0 -2.731287,0.277426 -3.53125,0.851562 -0.799963,0.574136 -1.205078,1.44784 -1.205078,2.580078 0,0.702666 0.304495,1.256159 0.886719,1.609375 0.582223,0.353216 1.430088,0.519531 2.546875,0.519531 3.992156,0 7.806045,-1.492328 11.43164,-4.466796 a 0.11786429,0.11786429 0 0 0 0.002,-0.002 c 3.623312,-2.987383 5.455079,-5.909309 5.455079,-8.773437 0,-1.335304 -0.420815,-2.691373 -1.253907,-4.060547 -0.81339,-1.36058 -2.585637,-2.500932 -5.238281,-3.462891 2.445203,-1.878541 4.197733,-3.448891 5.142578,-4.669921 0.968663,-1.266714 1.460938,-2.522588 1.460938,-3.761719 0,-1.714552 -0.774632,-3.226305 -2.296875,-4.509766 -1.51148,-1.301368 -3.486672,-1.949219 -5.908203,-1.949219 z m 56.966796,0.146485 c 0.559922,0 1.033412,0.304479 1.447266,0.960937 a 0.11786429,0.11786429 0 0 0 0.002,0.0039 c 0.426751,0.640125 0.642578,1.447222 0.642578,2.43164 0,0.77441 -0.211127,1.894775 -0.636718,3.347656 a 0.11786429,0.11786429 0 0 0 0,0.002 c -0.929766,3.379626 -1.836374,7.734861 -2.720704,13.070312 -0.442021,2.666862 -0.772968,4.760799 -0.99414,6.283203 -0.221173,1.522405 -0.333985,2.464517 -0.333985,2.863281 v 0.75 c 0,0.847661 -0.07424,1.473116 -0.21289,1.861329 -0.134582,0.376829 -0.472264,0.742697 -1.033203,1.08789 a 0.11786429,0.11786429 0 0 0 -0.0039,0.002 c -0.535215,0.352116 -1.247012,0.533203 -2.144531,0.533203 -0.536737,0 -0.923701,-0.05315 -1.146484,-0.144531 h -0.002 c -0.196374,-0.08624 -0.518922,-0.372273 -0.925782,-0.851562 -0.406228,-0.493278 -0.83864,-1.143154 -1.292968,-1.949219 -0.708121,-1.224459 -1.231454,-2.057586 -1.578125,-2.509766 a 0.11786429,0.11786429 0 0 0 0,-0.002 C 69.823797,58.672238 66.438615,53.455645 63.185547,47.494141 a 0.11786429,0.11786429 0 0 0 -0.21875,0.0293 c -0.445349,1.840777 -1.121647,6.109411 -2.035156,12.828125 l -0.265625,1.988282 0.002,-0.0039 c -0.1191,0.699712 -0.222014,1.704347 -0.310547,3.017579 -0.102121,1.560987 -0.48305,2.665803 -1.117188,3.328125 a 0.11786429,0.11786429 0 0 0 -0.002,0.002 c -0.635709,0.679053 -1.232052,1.001953 -1.791015,1.001953 -0.937006,0 -1.580808,-0.242655 -1.964844,-0.708985 -0.360439,-0.440536 -0.568359,-1.409328 -0.56836,-2.886718 0,-1.158887 0.290986,-2.84608 0.878907,-5.050782 a 0.11786429,0.11786429 0 0 0 0.002,-0.01172 l 0.02148,-0.126953 1.613281,-7.447266 c 1.237829,-5.89442 1.887702,-10.003483 1.947266,-12.349609 v -0.002 c 0.04408,-1.114453 0.127939,-1.873692 0.238281,-2.246093 0.121818,-0.376698 0.437914,-0.748749 0.96875,-1.107422 a 0.11786429,0.11786429 0 0 0 0.002,0 c 0.540716,-0.369963 1.146193,-0.554688 1.832032,-0.554688 0.431334,0 0.939206,0.140502 1.517578,0.429688 0.523558,0.26178 1.023166,1.165885 1.417969,2.730469 0.624311,2.570339 2.227758,5.964696 4.808593,10.197265 2.579824,4.230912 4.903336,7.62306 6.970703,10.177735 a 0.11786429,0.11786429 0 0 0 0.207032,-0.04883 c 0.560541,-2.537186 1.170841,-5.83222 1.833984,-9.884765 0.47127,-2.88653 0.913993,-5.389991 1.326172,-7.509766 0.339589,-1.77177 0.547061,-3.345657 0.621094,-4.722656 0.07251,-1.276259 0.443819,-2.098822 1.09375,-2.513672 0.692145,-0.43259 1.376029,-0.644531 2.058593,-0.644531 z m -56.966796,0.08789 c 2.380285,0 4.29172,0.633342 5.755859,1.894532 a 0.11786429,0.11786429 0 0 0 0.002,0 c 1.483004,1.250376 2.210938,2.685824 2.210938,4.330078 0,1.176381 -0.466425,2.380047 -1.41211,3.617187 -0.944869,1.221063 -2.691685,2.810376 -5.236328,4.751953 a 0.11786429,0.11786429 0 0 0 0.03125,0.205079 c 2.742024,0.967773 4.500687,2.125935 5.287109,3.441406 0.816195,1.34089 1.220704,2.653058 1.220704,3.939453 0,2.763347 -1.775917,5.62761 -5.371094,8.591797 -3.592892,2.947638 -7.349754,4.416015 -11.283203,4.416015 -1.092955,0 -1.903135,-0.169255 -2.425782,-0.486328 -0.522646,-0.317072 -0.771484,-0.770291 -0.771484,-1.408203 0,-1.077502 0.365979,-1.857937 1.105469,-2.388672 0.73949,-0.530734 1.869175,-0.80664 3.394531,-0.80664 h 1.083984 c 1.488995,0 3.324375,-0.849295 5.529297,-2.521485 2.210463,-1.691226 3.337891,-3.425592 3.337891,-5.199218 0,-1.079696 -0.46936,-2.043967 -1.386719,-2.871094 -0.9226,-0.846338 -2.15618,-1.267578 -3.679687,-1.267578 -0.06752,0 -0.121712,0.01908 -0.212891,0.04883 -0.09118,0.02975 -0.208735,0.07328 -0.355469,0.130859 -0.293467,0.115159 -0.700893,0.28696 -1.224609,0.515625 -1.054487,0.454016 -1.829865,0.673828 -2.294922,0.673828 -1.375158,0 -2.265887,-0.182117 -2.644531,-0.482422 -0.366545,-0.301959 -0.574219,-0.948321 -0.574219,-1.96289 0,-0.139575 0.07515,-0.310432 0.251953,-0.509766 0.176801,-0.199334 0.450241,-0.422651 0.820313,-0.662109 0.740144,-0.478917 1.862453,-1.024929 3.361328,-1.634766 1.726548,-0.684666 3.446893,-1.850988 5.164062,-3.49414 1.718576,-1.659315 2.59961,-3.068204 2.59961,-4.261719 0,-0.757785 -0.287093,-1.350941 -0.847657,-1.736328 -0.560563,-0.385387 -1.378945,-0.56836 -2.453125,-0.56836 -1.997496,0 -3.95704,0.222058 -5.880859,0.666016 -0.963253,0.222289 -1.715298,0.470204 -2.259766,0.75 -0.544467,0.279796 -0.891839,0.594218 -1.009765,0.964844 -0.111937,0.351803 -0.293688,1.345296 -0.566406,3.033203 -0.272719,1.687906 -0.630267,4.055675 -1.072266,7.105469 -0.44201,3.049869 -0.773005,5.455079 -0.994141,7.216796 -0.221136,1.761718 -0.332031,2.873456 -0.332031,3.363282 l -0.220703,2.974609 c -0.116935,1.487258 -0.467922,2.418756 -0.992187,2.808594 a 0.11786429,0.11786429 0 0 0 -0.002,0 c -0.55524,0.427108 -1.181521,0.638672 -1.894531,0.638672 -0.961659,0 -1.656736,-0.303085 -2.126953,-0.910157 -0.470217,-0.607071 -0.7167969,-1.535851 -0.7167969,-2.794921 0,-0.37302 0.1234296,-1.0874 0.3730469,-2.115235 0.6500069,-2.673892 1.2765465,-6.389585 1.880859,-11.15039 0.309389,-2.379348 0.540551,-4.209871 0.695313,-5.492188 0.07738,-0.641158 0.135049,-1.144245 0.173828,-1.511719 0.03878,-0.367473 0.06055,-0.5926 0.06055,-0.701172 0,-0.376147 -0.03542,-0.661793 -0.119141,-0.871093 -0.04186,-0.10465 -0.09684,-0.191379 -0.171875,-0.253907 -0.07503,-0.06253 -0.17132,-0.09766 -0.269531,-0.09766 a 0.11786429,0.11786429 0 0 0 -0.0098,0.002 l -0.595703,0.04297 a 0.11786429,0.11786429 0 0 0 -0.0039,0 c -0.4109948,0.0411 -0.7607545,-0.07633 -1.078125,-0.365234 l -0.00195,-0.002 C 8.8248664,42.772322 8.6169453,42.482322 8.5234375,42.228516 8.4240261,41.958685 8.3769531,41.714612 8.3769531,41.496094 c 0,-0.674058 0.4744791,-1.353526 1.4824219,-2.035157 1.007943,-0.68163 2.536474,-1.35419 4.578125,-2.007812 4.083429,-1.307285 8.372694,-1.960938 12.869141,-1.960938 z m 117.248049,0.207032 c -3.19672,0 -6.26811,1.199022 -9.20117,3.583984 -2.91619,2.383277 -5.29857,5.454 -7.14649,9.208984 -1.84697,3.753044 -2.77344,7.144509 -2.77344,10.173829 0,2.578315 0.97733,5.080925 2.91993,7.498046 1.94542,2.405788 4.1934,3.623047 6.7207,3.623047 3.85819,0 6.98751,-0.649748 9.38281,-1.958984 2.384,-1.303054 4.72,-3.14522 7.00977,-5.523438 2.30639,-2.380318 4.06225,-4.909566 5.26172,-7.589843 1.21221,-2.690513 1.82226,-4.980675 1.82226,-6.876953 0,-2.129809 -0.22861,-3.80582 -0.69336,-5.035157 -0.45082,-1.247282 -1.36334,-2.440909 -2.72851,-3.583984 -1.35068,-1.157718 -2.83799,-2.034761 -4.45704,-2.628906 -1.60956,-0.596136 -3.6476,-0.890625 -6.11718,-0.890625 z m -97.095706,0.08789 c -0.388359,0 -0.895799,0.227987 -1.566406,0.660157 -0.669279,0.416757 -1.14613,0.820668 -1.425781,1.224609 a 0.11786429,0.11786429 0 0 0 0,0.002 c -0.143985,0.211744 -0.257057,0.556787 -0.365235,1.056641 -0.108177,0.499853 -0.206254,1.151637 -0.294921,1.957031 -0.117419,1.08612 -0.300909,2.26133 -0.550782,3.525391 a 0.11786429,0.11786429 0 0 0 -0.002,0.0059 l -1.214844,8.640625 a 0.11786429,0.11786429 0 0 0 0,0.002 C 41.346498,58.077667 41,61.370977 41,62.775391 c 0,2.246957 0.215433,3.833899 0.673828,4.78125 0.458197,0.931667 1.258195,1.414062 2.337891,1.414062 0.769578,0 1.533761,-0.32586 2.285156,-0.957031 a 0.11786429,0.11786429 0 0 0 0.002,0 c 0.77196,-0.663886 1.058639,-1.716446 0.878906,-3.109375 -0.235087,-1.880699 -0.351562,-3.790659 -0.351562,-5.730469 0,-1.132106 0.241039,-3.284704 0.726562,-6.433594 v -0.002 c 0.294545,-1.767498 0.44336,-2.856501 0.44336,-3.310547 v 0.01367 c 0.08745,-0.787016 0.291815,-1.851674 0.615234,-3.189453 l 1.591797,-6.740234 a 0.11786429,0.11786429 0 0 0 0.0039,-0.02734 c 0,-1.018946 -0.234675,-1.889601 -0.705078,-2.603516 -0.46048,-0.72142 -1.156702,-1.09375 -2.042969,-1.09375 z m 97.095706,0.146485 c 2.45076,0 4.46465,0.29456 6.03711,0.876953 1.59244,0.584384 3.05232,1.447478 4.38281,2.58789 a 0.11786429,0.11786429 0 0 0 0.002,0 c 1.34416,1.125004 2.22734,2.286914 2.66016,3.484375 a 0.11786429,0.11786429 0 0 0 0,0.002 c 0.44861,1.186647 0.67773,2.84023 0.67773,4.953125 0,1.845549 -0.597,4.107504 -1.80078,6.779296 a 0.11786429,0.11786429 0 0 0 -0.002,0 c -1.18706,2.652566 -2.92303,5.160179 -5.21289,7.523438 -2.2767,2.364831 -4.59586,4.190961 -6.95508,5.480469 -2.34827,1.283527 -5.43783,1.93164 -9.26953,1.93164 -2.45199,0 -4.62285,-1.169857 -6.53711,-3.537109 -1.91709,-2.385384 -2.86719,-4.830788 -2.86719,-7.349609 0,-2.981177 0.91407,-6.337746 2.75,-10.06836 1.83497,-3.728672 4.19592,-6.772512 7.08399,-9.132812 2.90066,-2.358616 5.91289,-3.53125 9.05078,-3.53125 z m -97.095706,0.08984 c 0.8226,0 1.422288,0.321024 1.845703,0.984375 0.441234,0.668967 0.662992,1.490005 0.664063,2.470704 l -1.585938,6.71875 c -0.324771,1.343372 -0.53176,2.414751 -0.621093,3.21875 a 0.11786429,0.11786429 0 0 0 0,0.01172 c 0,0.400125 -0.147028,1.507164 -0.441407,3.273438 a 0.11786429,0.11786429 0 0 0 0,0.002 c -0.486472,3.154696 -0.730468,5.305017 -0.730468,6.470703 0,1.949334 0.117191,3.869172 0.353515,5.759766 0.173825,1.347149 -0.09763,2.297358 -0.798828,2.90039 -0.721185,0.605328 -1.429777,0.900391 -2.132812,0.900391 -1.012194,0 -1.701254,-0.415661 -2.126953,-1.28125 h 0.002 c -0.425501,-0.87937 -0.652344,-2.446284 -0.652344,-4.677734 0,-1.364863 0.345174,-4.670937 1.037109,-9.882813 v -0.002 l 1.216797,-8.638672 c 0.250352,-1.267323 0.434648,-2.446763 0.552735,-3.539062 0.08811,-0.800352 0.185584,-1.444476 0.291015,-1.931641 0.105178,-0.485995 0.221872,-0.8176 0.328125,-0.974609 l 0.002,-0.002 c 0.250512,-0.361044 0.703417,-0.751266 1.357422,-1.158203 a 0.11786429,0.11786429 0 0 0 0,-0.002 c 0.655237,-0.422264 1.150158,-0.621094 1.439453,-0.621094 z m 97.095706,4.050782 c -2.9,0 -5.87371,2.088696 -8.9336,6.21289 -3.06024,4.124675 -4.59765,8.186655 -4.59765,12.179688 0,1.835303 0.54771,3.377571 1.64258,4.607422 1.09228,1.226956 2.36737,1.851562 3.80078,1.851562 3.98574,0 7.72614,-1.914308 11.20312,-5.716797 3.47668,-3.81695 5.22266,-7.876637 5.22266,-12.166015 0,-1.517645 -0.28887,-2.749484 -0.87891,-3.6875 -0.59057,-0.954005 -1.59156,-1.73341 -2.99023,-2.34375 h -0.002 c -1.385,-0.625183 -2.87576,-0.9375 -4.46679,-0.9375 z m 0,0.236328 c 1.56086,0 3.0165,0.304266 4.37109,0.916015 a 0.11786429,0.11786429 0 0 0 0.002,0.002 c 1.36997,0.597539 2.32652,1.350163 2.88477,2.251953 a 0.11786429,0.11786429 0 0 0 0.002,0 c 0.55903,0.888704 0.84375,2.074896 0.84375,3.5625 0,4.225491 -1.71493,8.223252 -5.16211,12.007812 -3.44687,3.769558 -7.11889,5.640625 -11.02929,5.640625 -1.36559,0 -2.56453,-0.584409 -3.62305,-1.773437 -1.05595,-1.186134 -1.58398,-2.662499 -1.58398,-4.451172 0,-3.932573 1.51214,-7.9435 4.55078,-12.039063 3.03899,-4.096042 5.95772,-6.117187 8.74414,-6.117187 z m -25.99414,17.027344 a 0.11786429,0.11786429 0 0 0 0.0195,0.0039 l -0.0137,0.002 z"
         id="path2" />
      <path
         style="-inkscape-font-specification:'Segoe Print, Bold';fill:#ffffff;stroke-linecap:round;stroke-linejoin:round;stroke-miterlimit:3.1;paint-order:stroke markers fill"
         d="m 28.698244,50.179999 q 4.132216,1.458429 5.347574,3.491391 1.237455,2.032962 1.237455,3.999631 0,4.220606 -5.413866,8.684284 -5.413866,4.44158 -11.35807,4.44158 -3.314612,0 -3.314612,-2.010865 0,-3.314612 4.618359,-3.314612 h 1.082774 q 2.165546,0 5.458061,-2.497008 3.292514,-2.519105 3.292514,-5.104502 0,-1.568916 -1.347942,-2.784274 -1.347942,-1.237455 -3.601878,-1.237455 -0.17678,0 -1.745696,0.68502 -1.591014,0.68502 -2.342326,0.68502 -2.077156,0 -2.717981,-0.508241 -0.618728,-0.50824 -0.618728,-2.055059 0,-1.082773 4.507872,-2.916859 2.5633,-1.016481 5.1266,-3.469293 2.5633,-2.474911 2.5633,-4.176411 0,-2.187644 -3.182028,-2.187644 -2.98315,0 -5.855814,0.662922 -2.872664,0.662923 -3.182027,1.635209 -0.309364,0.972286 -1.635209,10.120615 -1.325845,9.148328 -1.325845,10.562563 l -0.220974,2.983151 q -0.176779,2.253936 -1.038578,2.894761 -0.861799,0.662922 -1.96667,0.662922 -2.9610531,0 -2.9610531,-3.822852 0,-0.596631 0.375656,-2.143449 0.9722861,-3.999632 1.8782801,-11.137096 0.928091,-7.137465 0.928091,-7.6899 0,-1.104871 -0.441948,-1.104871 l -0.59663,0.04419 Q 9.5839825,43.639165 9.075742,43.175119 8.5675015,42.688976 8.4128196,42.269125 8.2581378,41.849274 8.2581378,41.495716 q 0,-2.187644 6.1430802,-4.154314 6.143081,-1.96667 12.904889,-1.96667 3.601879,0 5.833717,1.922475 2.253936,1.900378 2.253936,4.419483 0,1.811987 -1.436332,3.690268 -1.436331,1.856182 -5.259184,4.773041 z m 19.799281,-3.955437 q -0.486143,2.010864 -0.618727,3.204125 0,0.640825 -0.441948,3.292514 -0.729215,4.728846 -0.729215,6.452445 0,2.916858 0.353559,5.745327 0.265168,2.055059 -0.839702,3.005248 -1.104871,0.928091 -2.209741,0.928091 -1.568917,0 -2.231839,-1.347942 -0.662922,-1.37004 -0.662922,-4.728846 0,-2.077157 1.038578,-9.899641 l 1.215358,-8.640088 q 0.375656,-1.900378 0.552435,-3.535586 0.265169,-2.408618 0.640825,-2.961054 0.397753,-0.574532 1.392137,-1.19326 0.994383,-0.640825 1.502624,-0.640825 1.28165,0 1.944572,1.038579 0.68502,1.038578 0.68502,2.541202 z m 7.203756,14.650584 1.613111,-7.446828 q 1.856183,-8.838965 1.944573,-12.330356 0.06629,-1.679403 0.243071,-2.276033 0.198877,-0.618728 1.016481,-1.171163 0.839702,-0.574533 1.900378,-0.574533 0.685019,0 1.568916,0.441948 0.883896,0.441949 1.480527,2.806372 0.928091,3.822852 4.795138,10.164809 3.867047,6.341958 6.960685,10.16481 0.839702,-3.800755 1.834085,-9.877543 0.707117,-4.331093 1.325845,-7.51312 0.50824,-2.65169 0.618728,-4.706749 0.110487,-1.944573 1.149065,-2.607495 1.060676,-0.662922 2.121352,-0.662922 0.905994,0 1.546818,1.016481 0.662923,0.994383 0.662923,2.497007 0,1.19326 -0.640825,3.380904 -1.392137,5.060308 -2.717982,13.059571 -1.325845,7.999263 -1.325845,9.126231 v 0.751312 q 0,1.28165 -0.220974,1.900378 -0.220974,0.618728 -1.082773,1.149065 -0.839702,0.552436 -2.209741,0.552436 -0.817604,0 -1.19326,-0.154682 -0.353559,-0.154682 -0.972287,-0.883897 -0.618727,-0.751312 -1.303747,-1.966669 -1.060676,-1.834086 -1.568916,-2.497008 -5.281282,-6.717613 -10.16481,-15.667065 -0.662922,2.740079 -2.032962,12.816499 l -0.265169,1.988767 q -0.176779,1.038578 -0.309364,3.005248 -0.154682,2.364423 -1.149065,3.403002 -0.972286,1.038578 -1.87828,1.038578 -1.436332,0 -2.05506,-0.751312 -0.59663,-0.729215 -0.59663,-2.961053 0,-1.767793 0.883897,-5.082405 z m 62.845039,-3.646073 h 0.0221 q -0.53034,1.811988 -1.06068,4.883528 -0.53034,3.049443 -0.53034,4.419483 0,2.541202 -0.0442,3.513488 -0.0221,0.972287 -0.39775,1.591014 -0.37566,0.618728 -0.97229,0.950189 -0.59663,0.353559 -1.34794,0.353559 -1.19326,0 -2.20974,-0.839702 -0.99439,-0.839702 -0.99439,-1.96667 0,-0.375656 0.61873,-3.226222 0.55244,-2.541203 0.8839,-4.35319 -7.40264,5.480158 -13.258451,5.480158 -3.955436,0 -6.297762,-2.298131 -2.320228,-2.298131 -2.320228,-6.297763 0,-6.319859 3.800755,-12.131479 v 0.0221 q 4.043826,-6.054691 9.546086,-9.546082 5.52435,-3.491391 11.0266,-3.491391 2.85057,0 4.50788,1.060676 1.6573,1.038578 1.6573,2.651689 0,1.347943 -1.14906,2.983151 -1.12697,1.635209 -2.27604,1.635209 -0.72921,0 -1.08277,-0.287267 -0.35356,-0.309364 -0.72921,-1.19326 -0.41985,-0.994384 -0.97229,-1.392137 -0.53034,-0.419851 -1.56892,-0.419851 -3.3588,0 -7.6899,3.314612 -4.30899,3.292514 -7.004876,7.822484 -2.673787,4.507872 -2.673787,8.617991 0,4.331093 3.712366,4.331093 1.922477,0 4.596257,-0.994384 2.67379,-0.994383 5.70114,-3.115735 3.02734,-2.121352 3.62397,-3.867047 0.61873,-1.745696 0.92809,-3.84495 0.17678,-1.237455 0.906,-1.635208 0.75131,-0.419851 2.01086,-0.419851 2.89476,0 2.89476,1.966669 0,0.77341 -0.75131,2.519105 -0.59663,1.325845 -1.10487,3.204125 z m 16.52887,12.440843 q -3.73447,0 -6.62923,-3.57978 -2.89476,-3.601879 -2.89476,-7.424731 0,-4.507872 2.76218,-10.120615 2.76217,-5.612743 7.11536,-9.170426 4.37529,-3.557683 9.12624,-3.557683 3.69026,0 6.07678,0.883896 2.40862,0.883897 4.41949,2.607495 2.03296,1.7015 2.69588,3.535586 0.68502,1.811988 0.68502,4.994015 0,2.806371 -1.81199,6.8281 -1.78989,3.999632 -5.23708,7.557315 -3.4251,3.557684 -6.98279,5.502256 -3.55768,1.944572 -9.3251,1.944572 z m -3.93334,-11.203388 q 0,2.717982 1.61311,4.52997 1.61311,1.811988 3.71236,1.811988 5.92211,0 11.115,-5.679035 5.19289,-5.701133 5.19289,-12.087285 0,-2.253936 -0.8618,-3.623976 -0.8618,-1.392137 -2.93895,-2.29813 -2.05506,-0.928092 -4.41948,-0.928092 -4.26481,0 -8.83897,6.165178 -4.57416,6.165178 -4.57416,12.109382 z"
         id="path3" />
    </g>
    <g
       id="path6"
       inkscape:transform-center-x="0.012056777"
       inkscape:transform-center-y="-1.0932534">
      <path
         style="stroke-linecap:round;stroke-linejoin:round;stroke-miterlimit:3.1;paint-order:stroke markers fill"
         d="m 37.5625,20.878906 c -6.01e-4,2e-6 -0.04033,0.0056 -0.04102,0.0059 -6.9e-4,2.09e-4 -0.01848,0.0061 -0.02539,0.0098 -0.01383,0.0074 -0.02229,0.01351 -0.0293,0.01953 -0.01402,0.01205 -0.02304,0.023 -0.03125,0.0332 -0.01641,0.02041 -0.02977,0.04292 -0.04687,0.07031 -0.03421,0.05479 -0.07635,0.128031 -0.126953,0.222656 -0.101202,0.189251 -0.237041,0.4565 -0.394532,0.777344 -0.31498,0.641689 -0.719879,1.497795 -1.125,2.355469 -0.40512,0.857673 -0.808816,1.718113 -1.11914,2.36914 -0.155162,0.325514 -0.288455,0.599294 -0.384766,0.792969 -0.04816,0.09684 -0.08695,0.172105 -0.115234,0.22461 -0.01048,0.01945 -0.01845,0.03105 -0.02539,0.04297 -0.01304,0.0029 -0.02506,0.006 -0.04492,0.0098 -0.0586,0.01107 -0.14313,0.02442 -0.25,0.04102 -0.213738,0.03319 -0.513888,0.07561 -0.871093,0.125 -0.71441,0.09878 -1.657604,0.224963 -2.597657,0.351562 -0.940053,0.1266 -1.877067,0.255287 -2.583984,0.361328 -0.353459,0.05302 -0.650326,0.09948 -0.861328,0.138672 -0.105501,0.0196 -0.189376,0.03671 -0.251953,0.05273 -0.03129,0.008 -0.05565,0.01592 -0.08008,0.02539 -0.01221,0.0047 -0.02529,0.0098 -0.04102,0.01953 -0.0079,0.0049 -0.01614,0.01053 -0.02734,0.02148 -0.0056,0.0055 -0.01717,0.02089 -0.01758,0.02148 -4.08e-4,5.95e-4 -0.01739,0.03458 -0.01758,0.03516 -1.84e-4,5.72e-4 -0.0078,0.0403 -0.0078,0.04102 -1.4e-5,7.21e-4 5.9e-4,0.01963 0.002,0.02734 0.0027,0.01543 0.0082,0.02663 0.01172,0.03516 0.0071,0.01705 0.01236,0.02615 0.01953,0.03711 0.01434,0.02192 0.03196,0.04363 0.05273,0.06836 0.04154,0.04947 0.09947,0.112088 0.173828,0.189453 0.148715,0.15473 0.360714,0.366306 0.617188,0.615234 0.512948,0.497857 1.200118,1.1485 1.890625,1.798828 0.690506,0.650329 1.384934,1.300561 1.908203,1.796875 0.261634,0.248158 0.480331,0.45793 0.634765,0.609375 0.07722,0.07572 0.138492,0.136567 0.179688,0.179688 0.01501,0.01571 0.02406,0.02494 0.0332,0.03516 -0.0013,0.0135 -0.0032,0.02598 -0.0059,0.04687 -0.0076,0.05915 -0.01987,0.145186 -0.03711,0.251953 -0.03448,0.213534 -0.08698,0.512204 -0.15039,0.867188 -0.126822,0.709968 -0.298661,1.64496 -0.46875,2.578125 -0.170089,0.933165 -0.339433,1.865225 -0.457032,2.570312 -0.0588,0.352544 -0.104882,0.64659 -0.132812,0.859375 -0.01396,0.106393 -0.02325,0.191393 -0.02734,0.25586 -0.002,0.03223 -0.0034,0.05978 -0.002,0.08594 7.28e-4,0.01308 0.0034,0.02501 0.0078,0.04297 0.0022,0.009 0.0048,0.01917 0.01172,0.0332 0.0035,0.007 0.01323,0.02482 0.01367,0.02539 4.39e-4,5.72e-4 0.02881,0.02699 0.0293,0.02734 4.87e-4,3.52e-4 0.03448,0.01929 0.03516,0.01953 6.82e-4,2.36e-4 0.01959,0.0048 0.02734,0.0059 0.01551,0.0022 0.0279,7.55e-4 0.03711,0 0.01842,-0.0015 0.03033,-0.0044 0.04297,-0.0078 0.02528,-0.0069 0.05014,-0.01523 0.08008,-0.02734 0.05988,-0.02422 0.137819,-0.06061 0.234375,-0.107422 0.193113,-0.09362 0.459391,-0.231439 0.775391,-0.398438 0.631999,-0.333996 1.463044,-0.786438 2.294922,-1.242187 0.831877,-0.455749 1.663153,-0.913524 2.296875,-1.257813 0.316861,-0.172144 0.585587,-0.315939 0.777343,-0.416015 0.09588,-0.05004 0.172822,-0.08938 0.226563,-0.115235 0.01909,-0.0092 0.03054,-0.01402 0.04297,-0.01953 0.01246,0.0054 0.02382,0.01048 0.04297,0.01953 0.05391,0.02549 0.132303,0.06389 0.228516,0.113282 0.192427,0.09878 0.459329,0.240153 0.777344,0.410156 0.63603,0.340006 1.471708,0.794012 2.30664,1.24414 0.834933,0.450129 1.67045,0.896836 2.304688,1.226563 0.317119,0.164863 0.583604,0.300261 0.777344,0.392578 0.09687,0.04616 0.174329,0.08165 0.234375,0.105469 0.03002,0.01191 0.05476,0.02065 0.08008,0.02734 0.01266,0.0033 0.02649,0.0064 0.04492,0.0078 0.0092,6.93e-4 0.01966,3.26e-4 0.03516,-0.002 0.0078,-0.0011 0.02666,-0.0056 0.02734,-0.0059 6.79e-4,-2.41e-4 0.03467,-0.01918 0.03516,-0.01953 4.85e-4,-3.54e-4 0.02886,-0.02677 0.0293,-0.02734 4.35e-4,-5.75e-4 0.01024,-0.0164 0.01367,-0.02344 0.0069,-0.01408 0.0096,-0.02616 0.01172,-0.03516 0.0043,-0.01799 0.0052,-0.02989 0.0059,-0.04297 0.0013,-0.02616 3.12e-4,-0.05177 -0.002,-0.08398 -0.0045,-0.06444 -0.01461,-0.151517 -0.0293,-0.257813 -0.02936,-0.212592 -0.0775,-0.507236 -0.138672,-0.859375 -0.122351,-0.704278 -0.296278,-1.634409 -0.472656,-2.566406 -0.176379,-0.931997 -0.354722,-1.865122 -0.486328,-2.574219 -0.0658,-0.354548 -0.120328,-0.653891 -0.15625,-0.867187 -0.01796,-0.106648 -0.03108,-0.1909 -0.03906,-0.25 -0.0027,-0.02029 -0.0045,-0.03353 -0.0059,-0.04687 0.0091,-0.01031 0.01818,-0.02117 0.0332,-0.03711 0.0409,-0.0434 0.10103,-0.105398 0.177734,-0.18164 0.15341,-0.152484 0.370905,-0.363365 0.63086,-0.613282 0.519909,-0.499832 1.208426,-1.153623 1.894531,-1.808593 0.686105,-0.654971 1.369327,-1.311195 1.878906,-1.8125 0.254789,-0.250653 0.467566,-0.461458 0.615234,-0.617188 0.07383,-0.07786 0.130669,-0.141659 0.171875,-0.191406 0.0206,-0.02487 0.03659,-0.04634 0.05078,-0.06836 0.0071,-0.01101 0.01447,-0.02196 0.02148,-0.03906 0.0035,-0.0085 0.0071,-0.01776 0.0098,-0.0332 0.0013,-0.0077 0.002,-0.02858 0.002,-0.0293 -1.9e-5,-7.21e-4 -0.0076,-0.03849 -0.0078,-0.03906 -1.87e-4,-5.71e-4 -0.01717,-0.03457 -0.01758,-0.03516 -4.12e-4,-5.91e-4 -0.01194,-0.01605 -0.01758,-0.02148 -0.01127,-0.01088 -0.0214,-0.01863 -0.0293,-0.02344 -0.01579,-0.0096 -0.02682,-0.01293 -0.03906,-0.01758 -0.02449,-0.0093 -0.05069,-0.01759 -0.08203,-0.02539 -0.06268,-0.0156 -0.146322,-0.0319 -0.251953,-0.05078 -0.211261,-0.03777 -0.507519,-0.08218 -0.861328,-0.132812 -0.707616,-0.101271 -1.645052,-0.223493 -2.585937,-0.34375 -0.940885,-0.120257 -1.88455,-0.240027 -2.59961,-0.333984 -0.357529,-0.04698 -0.659089,-0.08739 -0.873047,-0.119141 -0.106978,-0.01587 -0.191325,-0.02839 -0.25,-0.03906 -0.02072,-0.0038 -0.03361,-0.0069 -0.04687,-0.0098 -0.0069,-0.01176 -0.01314,-0.0222 -0.02344,-0.04102 -0.02863,-0.05231 -0.06838,-0.130052 -0.117188,-0.226562 -0.09761,-0.193021 -0.231317,-0.464603 -0.388671,-0.789063 -0.314708,-0.648919 -0.725823,-1.506406 -1.136719,-2.361328 -0.410896,-0.854922 -0.821324,-1.708106 -1.140625,-2.347656 -0.159651,-0.319775 -0.295962,-0.586827 -0.398438,-0.775391 -0.05124,-0.09428 -0.09433,-0.168094 -0.128906,-0.222656 -0.01729,-0.02728 -0.03228,-0.05001 -0.04883,-0.07031 -0.0083,-0.01015 -0.01715,-0.01929 -0.03125,-0.03125 -0.007,-0.006 -0.01542,-0.01226 -0.0293,-0.01953 -0.0069,-0.0036 -0.0247,-0.01151 -0.02539,-0.01172 -6.91e-4,-2.04e-4 -0.03846,-0.0039 -0.03906,-0.0039 z m 0,0.365235 c 0.0224,0.03858 0.04113,0.0674 0.07031,0.121093 0.09956,0.183196 0.233601,0.44915 0.392579,0.767578 0.317956,0.636857 0.729894,1.487218 1.140625,2.341797 0.410731,0.85458 0.821435,1.713176 1.136718,2.363282 0.157642,0.325053 0.291654,0.597265 0.390625,0.792968 0.04949,0.09785 0.08985,0.177294 0.121094,0.234375 0.01562,0.02854 0.02914,0.05119 0.04102,0.07031 0.0059,0.0096 0.01088,0.01823 0.01758,0.02734 0.0033,0.0046 0.0066,0.0079 0.01172,0.01367 0.0051,0.0058 0.02442,0.02273 0.02539,0.02344 9.74e-4,7.03e-4 0.02219,0.01454 0.0293,0.01758 0.0071,0.003 0.01415,0.0041 0.01953,0.0059 0.01076,0.0035 0.02031,0.0071 0.03125,0.0098 0.02189,0.0052 0.04807,0.0098 0.08008,0.01563 0.06402,0.01164 0.151301,0.02492 0.259766,0.04102 0.216931,0.03219 0.516817,0.07403 0.875,0.121093 0.716367,0.09413 1.661054,0.211823 2.601563,0.332032 0.940508,0.120208 1.877395,0.242905 2.582031,0.34375 0.352318,0.05042 0.646315,0.09417 0.851562,0.130859 0.05929,0.0106 0.09342,0.01836 0.136719,0.02734 -0.02961,0.03303 -0.05211,0.0596 -0.09375,0.103515 -0.143464,0.151297 -0.353706,0.363685 -0.607422,0.613282 -0.507432,0.499193 -1.189169,1.153886 -1.875,1.808593 -0.68583,0.654708 -1.375624,1.307848 -1.896484,1.808594 -0.26043,0.250373 -0.479224,0.462585 -0.634766,0.617188 -0.07777,0.0773 -0.138961,0.140146 -0.183594,0.1875 -0.02232,0.02368 -0.04017,0.04335 -0.05469,0.06055 -0.0073,0.0086 -0.01293,0.0162 -0.01953,0.02539 -0.0033,0.0046 -0.0078,0.01092 -0.01172,0.01758 -0.0039,0.0067 -0.01331,0.03011 -0.01367,0.03125 -3.67e-4,0.0011 -0.0052,0.02551 -0.0059,0.0332 -6.9e-4,0.0077 -0.002,0.01192 -0.002,0.01758 1.3e-5,0.01131 0.0011,0.02199 0.002,0.0332 0.0018,0.02244 0.0054,0.04979 0.0098,0.08203 0.0087,0.06449 0.0228,0.151635 0.04102,0.259766 0.03642,0.21626 0.09033,0.515897 0.15625,0.871093 0.131847,0.710393 0.310021,1.642596 0.486328,2.574219 0.176308,0.931623 0.350821,1.861188 0.472656,2.5625 0.06092,0.350656 0.10819,0.645022 0.136719,0.851563 0.0083,0.06009 0.01078,0.09452 0.01563,0.138671 -0.04055,-0.01795 -0.07234,-0.03062 -0.126953,-0.05664 -0.188225,-0.08969 -0.453748,-0.224503 -0.769531,-0.388672 -0.631567,-0.328338 -1.464231,-0.776615 -2.298828,-1.226563 -0.834598,-0.449947 -1.671402,-0.901559 -2.308594,-1.242187 -0.318596,-0.170314 -0.586149,-0.313909 -0.78125,-0.414063 -0.09755,-0.05008 -0.1775,-0.08937 -0.236328,-0.117187 -0.02941,-0.01391 -0.05338,-0.02471 -0.07422,-0.0332 -0.01042,-0.0042 -0.02047,-0.0083 -0.03125,-0.01172 -0.0054,-0.0017 -0.01003,-0.0022 -0.01758,-0.0039 -0.0075,-0.0017 -0.032,-0.0039 -0.0332,-0.0039 -0.0012,4e-6 -0.02762,0.0022 -0.03516,0.0039 -0.0075,0.0017 -0.0122,0.0041 -0.01758,0.0059 -0.01076,0.0035 -0.02086,0.0074 -0.03125,0.01172 -0.02079,0.0086 -0.0449,0.0191 -0.07422,0.0332 -0.05864,0.02821 -0.137165,0.06841 -0.234375,0.119141 -0.194422,0.101467 -0.461857,0.24551 -0.779297,0.417968 -0.634881,0.344918 -1.467284,0.802247 -2.298828,1.257813 -0.831544,0.455566 -1.663631,0.909598 -2.292969,1.242187 -0.314669,0.166295 -0.57801,0.301622 -0.765625,0.392579 -0.05457,0.02645 -0.08647,0.04035 -0.126953,0.05859 0.0045,-0.04418 0.0077,-0.07853 0.01563,-0.138672 0.02714,-0.206727 0.07231,-0.500503 0.130859,-0.851562 0.117103,-0.702117 0.285057,-1.633615 0.455078,-2.566406 0.170021,-0.932791 0.341697,-1.86686 0.46875,-2.578125 0.06353,-0.355633 0.115429,-0.656546 0.150391,-0.873047 0.01748,-0.108251 0.03079,-0.195221 0.03906,-0.259766 0.0041,-0.03227 0.0081,-0.05763 0.0098,-0.08008 8.18e-4,-0.01122 6.3e-5,-0.02189 0,-0.0332 -3.1e-5,-0.0057 7.42e-4,-0.01184 0,-0.01953 -7.42e-4,-0.0077 -0.0074,-0.03206 -0.0078,-0.0332 -3.75e-4,-0.0011 -0.0097,-0.02462 -0.01367,-0.03125 -0.004,-0.0066 -0.0064,-0.01105 -0.0098,-0.01563 -0.0067,-0.0091 -0.01417,-0.01684 -0.02148,-0.02539 -0.01463,-0.0171 -0.03221,-0.03702 -0.05469,-0.06055 -0.04495,-0.04705 -0.107256,-0.108772 -0.185547,-0.185547 -0.15658,-0.15355 -0.376559,-0.36467 -0.638672,-0.613281 -0.524225,-0.497222 -1.217973,-1.146807 -1.908203,-1.796875 -0.69023,-0.650068 -1.375931,-1.301115 -1.886719,-1.796875 -0.255393,-0.24788 -0.466846,-0.457096 -0.611328,-0.607422 -0.04219,-0.0439 -0.06382,-0.07057 -0.09375,-0.103516 0.04309,-0.0092 0.07589,-0.01641 0.134766,-0.02734 0.204995,-0.03808 0.499592,-0.08392 0.851562,-0.136719 0.703941,-0.105595 1.640402,-0.234779 2.580079,-0.361328 0.939676,-0.126549 1.88194,-0.250651 2.597656,-0.34961 0.357858,-0.04948 0.658291,-0.0933 0.875,-0.126953 0.108354,-0.01683 0.195823,-0.03089 0.259765,-0.04297 0.03197,-0.006 0.05822,-0.0122 0.08008,-0.01758 0.01093,-0.0027 0.02051,-0.0043 0.03125,-0.0078 0.0054,-0.0018 0.01049,-0.0047 0.01758,-0.0078 0.0071,-0.0031 0.03028,-0.01492 0.03125,-0.01563 9.69e-4,-7.09e-4 0.01835,-0.01762 0.02344,-0.02344 0.0051,-0.0058 0.01035,-0.01104 0.01367,-0.01563 0.0066,-0.0092 0.01171,-0.01774 0.01758,-0.02734 0.01174,-0.0192 0.02363,-0.04167 0.03906,-0.07031 0.03086,-0.05729 0.07227,-0.136192 0.121093,-0.234375 0.09765,-0.196367 0.22932,-0.470766 0.384766,-0.796875 0.310892,-0.652218 0.714182,-1.511811 1.119141,-2.369141 0.404958,-0.85733 0.811346,-1.712576 1.125,-2.351562 0.156827,-0.319493 0.290351,-0.585668 0.388672,-0.769532 0.02842,-0.05314 0.04642,-0.08268 0.06836,-0.121093 z"
         id="path20" />
      <path
         style="fill:#ffffff;stroke-linecap:round;stroke-linejoin:round;stroke-miterlimit:3.1;paint-order:stroke markers fill"
         d="m 44.437678,41.930934 c -0.124091,0.0908 -6.663283,-3.555163 -6.817045,-3.554644 -0.153763,5.18e-4 -6.668217,3.690498 -6.792918,3.600538 -0.124701,-0.08996 1.322093,-7.435765 1.274084,-7.581841 -0.04801,-0.146076 -5.570464,-5.201424 -5.523442,-5.347821 0.04702,-0.146396 7.480381,-1.040393 7.604473,-1.131191 0.124091,-0.0908 3.22548,-6.905155 3.379242,-6.905673 0.153762,-5.19e-4 3.301038,6.792766 3.425739,6.882725 0.124701,0.08996 7.56392,0.933804 7.611928,1.079881 0.04801,0.146076 -5.440227,5.238553 -5.487249,5.38495 -0.04702,0.146396 1.449279,7.482277 1.325188,7.573076 z"
         id="path21" />
    </g>
    <g
       id="path7"
       inkscape:transform-center-x="1.4100421"
       inkscape:transform-center-y="0.40460768"
       transform="rotate(-12.494913,81.583015,26.206835)">
      <path
         style="stroke-linecap:round;stroke-linejoin:round;stroke-miterlimit:3.1;paint-order:stroke markers fill"
         d="m 78.453125,7.4804687 c -9.65e-4,1.613e-4 -0.02859,0.00658 -0.03906,0.011719 -0.01047,0.00514 -0.01872,0.01054 -0.02539,0.015625 -0.01334,0.01017 -0.02234,0.021007 -0.0293,0.029297 -0.01392,0.016579 -0.02224,0.030945 -0.03125,0.046875 -0.01803,0.031859 -0.0351,0.068356 -0.05469,0.1152343 -0.03918,0.093757 -0.08646,0.2241933 -0.142578,0.3886719 -0.112237,0.3289572 -0.259171,0.7929918 -0.427734,1.3496094 -0.337126,1.113235 -0.764039,2.59327 -1.189453,4.078125 -0.425415,1.484855 -0.848204,2.975194 -1.175781,4.103516 -0.163789,0.564161 -0.304093,1.037499 -0.408204,1.375 -0.05205,0.16875 -0.09476,0.303047 -0.126953,0.396484 -0.0161,0.04672 -0.02948,0.08388 -0.03906,0.107422 -4.79e-4,0.0012 -0.0015,8.41e-4 -0.002,0.002 -0.0011,4.82e-4 -7.78e-4,0.0015 -0.002,0.002 -0.02338,0.01 -0.06099,0.02412 -0.107422,0.04102 -0.09287,0.03379 -0.226696,0.07983 -0.394532,0.134765 -0.335671,0.109865 -0.807861,0.258233 -1.36914,0.431641 -1.122558,0.346815 -2.602712,0.795361 -4.080078,1.246094 -1.477367,0.450732 -2.951284,0.90366 -4.058594,1.259765 -0.553655,0.178053 -1.014806,0.331375 -1.341797,0.449219 -0.163495,0.05892 -0.293645,0.107657 -0.386719,0.148438 -0.04654,0.02039 -0.08369,0.03807 -0.115234,0.05664 -0.01577,0.0093 -0.03054,0.019 -0.04687,0.0332 -0.0082,0.0071 -0.01545,0.01578 -0.02539,0.0293 -0.005,0.0068 -0.01066,0.01483 -0.01563,0.02539 -0.005,0.01056 -0.01157,0.0381 -0.01172,0.03906 -1.45e-4,9.68e-4 -0.0017,0.03142 0,0.04297 0.0017,0.01155 0.0031,0.01943 0.0059,0.02734 0.0055,0.01583 0.01185,0.02793 0.01758,0.03711 0.01147,0.01836 0.02279,0.02947 0.03516,0.04297 0.02473,0.02699 0.05522,0.05477 0.09375,0.08789 0.07706,0.06624 0.185132,0.15166 0.324219,0.255859 0.278174,0.208397 0.675058,0.491901 1.152344,0.824219 0.954572,0.664635 2.230998,1.529139 3.511719,2.392578 1.28072,0.863439 2.565238,1.724551 3.537109,2.384765 0.485936,0.330108 0.894784,0.611145 1.183594,0.814454 0.144405,0.101654 0.258975,0.182695 0.33789,0.242187 0.03946,0.02975 0.07041,0.05392 0.08984,0.07031 0.001,8.6e-4 9.95e-4,0.0011 0.002,0.002 1.76e-4,0.0018 -1.73e-4,0.002 0,0.0039 0.0023,0.02532 0.0041,0.0639 0.0059,0.113281 0.0034,0.09877 0.0055,0.241373 0.0059,0.417969 7.59e-4,0.353193 -0.0032,0.8462 -0.01172,1.433594 -0.01705,1.174788 -0.04831,2.723235 -0.07617,4.267578 -0.02786,1.544343 -0.05314,3.08489 -0.05664,4.248047 -0.0018,0.581578 0.0026,1.068613 0.01367,1.416015 0.0055,0.173701 0.01146,0.312943 0.02148,0.414063 0.005,0.05056 0.01162,0.09121 0.01953,0.126953 0.004,0.01787 0.0072,0.03281 0.01563,0.05273 0.0042,0.01 0.0098,0.02153 0.01953,0.03516 0.0049,0.0068 0.01103,0.01546 0.01953,0.02344 0.0085,0.008 0.03233,0.023 0.0332,0.02344 8.75e-4,4.36e-4 0.02952,0.0097 0.04102,0.01172 0.01149,0.002 0.02091,0.0021 0.0293,0.002 0.01677,-3.86e-4 0.02856,-0.0013 0.03906,-0.0039 0.02101,-0.0052 0.03608,-0.01194 0.05273,-0.01953 0.03331,-0.01518 0.06988,-0.03609 0.113281,-0.0625 0.08681,-0.05282 0.201671,-0.130388 0.34375,-0.230469 0.284159,-0.20016 0.67513,-0.490562 1.138672,-0.841797 0.927085,-0.702468 2.142432,-1.648388 3.359375,-2.599609 1.216944,-0.951221 2.435055,-1.906667 3.363282,-2.626953 0.464113,-0.360143 0.856066,-0.661199 1.138671,-0.873047 0.141303,-0.105924 0.254972,-0.189425 0.335938,-0.246094 0.04048,-0.02833 0.07411,-0.05104 0.0957,-0.06445 6.99e-4,-4.34e-4 0.0013,4.17e-4 0.002,0 0.0016,3.46e-4 0.0022,-3.87e-4 0.0039,0 0.02478,0.0057 0.06188,0.01567 0.109375,0.0293 0.09499,0.02726 0.230368,0.06884 0.398438,0.123047 0.336141,0.108421 0.803364,0.265456 1.359375,0.455078 1.112021,0.379244 2.575008,0.886901 4.035156,1.390625 1.460149,0.503724 2.918292,1.004422 4.023438,1.367187 0.552573,0.181383 1.015801,0.326966 1.349609,0.423829 0.166904,0.04843 0.301123,0.08571 0.400391,0.107421 0.04963,0.01086 0.09052,0.01797 0.126953,0.02148 0.01822,0.0018 0.03508,0.0019 0.05664,0 0.01078,-9.43e-4 0.02308,-0.0027 0.03906,-0.0078 0.008,-0.0025 0.01712,-0.0061 0.02734,-0.01172 0.01022,-0.0056 0.03252,-0.02274 0.0332,-0.02344 6.86e-4,-6.97e-4 0.01799,-0.02484 0.02344,-0.03516 0.0054,-0.01031 0.0093,-0.01931 0.01172,-0.02734 0.0048,-0.01607 0.0071,-0.02826 0.0078,-0.03906 0.0015,-0.02159 1.17e-4,-0.03845 -0.002,-0.05664 -0.0041,-0.03637 -0.01369,-0.07556 -0.02539,-0.125 -0.02341,-0.09888 -0.06005,-0.232386 -0.111328,-0.398438 -0.102555,-0.332103 -0.258418,-0.794357 -0.449219,-1.34375 -0.381602,-1.098784 -0.906939,-2.546721 -1.435547,-3.998046 -0.528608,-1.451326 -1.060789,-2.904389 -1.458984,-4.009766 -0.199098,-0.552688 -0.364366,-1.019277 -0.478516,-1.353516 -0.05707,-0.167119 -0.101984,-0.301969 -0.130859,-0.396484 -0.01444,-0.04726 -0.02516,-0.08469 -0.03125,-0.109375 -2.29e-4,-9.27e-4 2.15e-4,-0.0011 0,-0.002 9.41e-4,-0.0016 9.05e-4,-0.0022 0.002,-0.0039 0.01304,-0.02182 0.03291,-0.05474 0.06055,-0.0957 0.05528,-0.08192 0.138694,-0.196751 0.242187,-0.339843 0.206988,-0.286185 0.501358,-0.684096 0.853516,-1.154297 0.704316,-0.940403 1.638079,-2.173225 2.568359,-3.40625 0.930281,-1.233025 1.85645,-2.465341 2.542969,-3.404297 0.34326,-0.469478 0.626991,-0.864806 0.822266,-1.152344 0.09764,-0.143769 0.173281,-0.259957 0.224609,-0.347656 0.02566,-0.04385 0.04399,-0.07972 0.05859,-0.113281 0.0073,-0.01678 0.01466,-0.03359 0.01953,-0.05469 0.0024,-0.01055 0.0038,-0.02229 0.0039,-0.03906 5e-5,-0.0084 2.38e-4,-0.01784 -0.002,-0.0293 -0.0022,-0.01146 -0.01322,-0.03819 -0.01367,-0.03906 -4.51e-4,-8.67e-4 -0.01726,-0.02483 -0.02539,-0.0332 -0.0081,-0.0084 -0.01459,-0.01476 -0.02148,-0.01953 -0.0138,-0.0095 -0.02512,-0.01547 -0.03516,-0.01953 -0.02007,-0.0081 -0.03675,-0.01197 -0.05469,-0.01563 -0.03587,-0.0073 -0.07631,-0.01148 -0.126953,-0.01563 -0.101276,-0.0083 -0.240292,-0.01308 -0.414062,-0.01563 -0.34754,-0.0051 -0.834552,2.7e-5 -1.416016,0.01172 -1.162927,0.02338 -2.702452,0.07465 -4.246094,0.128907 -1.543641,0.05425 -3.0913,0.111311 -4.265625,0.148437 -0.587162,0.01856 -1.080439,0.03183 -1.433593,0.03711 -0.176577,0.0026 -0.319157,0.0037 -0.417969,0.002 -0.04941,-8.73e-4 -0.08793,-0.0021 -0.113281,-0.0039 -9.53e-4,-6.9e-5 -0.001,7.1e-5 -0.002,0 -0.0016,-0.0018 -0.0022,-0.0019 -0.0039,-0.0039 -0.01672,-0.01915 -0.0399,-0.04895 -0.07031,-0.08789 -0.06083,-0.07789 -0.145892,-0.191338 -0.25,-0.333985 C 85.321081,16.937364 85.033678,16.53491 84.695312,16.054687 84.018582,15.094243 83.135204,13.824369 82.25,12.558594 81.364796,11.292819 80.477729,10.030962 79.796875,9.0878906 79.456448,8.6163547 79.1682,8.2237897 78.955078,7.9492187 78.848517,7.8119333 78.760905,7.7048224 78.693359,7.6289062 c -0.03377,-0.037958 -0.06243,-0.067533 -0.08984,-0.091797 -0.01371,-0.012132 -0.02637,-0.024006 -0.04492,-0.035156 -0.0093,-0.00558 -0.01923,-0.010346 -0.03516,-0.015625 -0.008,-0.00264 -0.01772,-0.0044 -0.0293,-0.00586 -0.01157,-0.00146 -0.04005,-1.612e-4 -0.04102,0 z m 0.05664,0.3417969 c 0.05927,0.067576 0.137531,0.1617797 0.236328,0.2890625 0.209375,0.2697448 0.498344,0.660544 0.83789,1.1308594 0.679092,0.9406305 1.564233,2.2013335 2.449219,3.4667965 0.884986,1.265464 1.769776,2.536525 2.447266,3.498047 0.338745,0.480761 0.623997,0.884154 0.833984,1.171875 0.104994,0.143861 0.191681,0.257673 0.255859,0.339844 0.03209,0.04109 0.05774,0.07402 0.08008,0.09961 0.01117,0.01279 0.02254,0.02472 0.0332,0.03516 0.01066,0.01044 0.01591,0.01874 0.04883,0.03516 0.03292,0.01642 0.04384,0.01534 0.05859,0.01758 0.01475,0.0022 0.02798,0.0046 0.04492,0.0059 0.03388,0.0025 0.07678,0.003 0.128907,0.0039 0.104247,0.0018 0.247701,7.08e-4 0.425781,-0.002 0.35616,-0.0053 0.851632,-0.01853 1.439453,-0.03711 1.175643,-0.03717 2.722364,-0.0942 4.265625,-0.148437 1.543262,-0.05424 3.08227,-0.105585 4.242188,-0.128907 0.579958,-0.01166 1.064818,-0.01672 1.40625,-0.01172 0.161479,0.0024 0.28534,0.0089 0.375,0.01563 -0.04595,0.07724 -0.112703,0.181308 -0.203125,0.314453 -0.191842,0.282483 -0.474036,0.676268 -0.816407,1.144531 -0.684742,0.936526 -1.610963,2.167669 -2.541015,3.400391 -0.930052,1.232721 -1.865207,2.466745 -2.570313,3.408203 -0.352553,0.470729 -0.646719,0.869582 -0.855469,1.158203 -0.104374,0.14431 -0.187776,0.261227 -0.246093,0.347656 -0.02916,0.04322 -0.05093,0.07827 -0.06836,0.107422 -0.0087,0.01458 -0.01681,0.02765 -0.02344,0.04102 -0.0066,0.01337 -0.01409,0.02026 -0.01953,0.05664 -0.0054,0.03638 -4.75e-4,0.04582 0.002,0.06055 0.0024,0.01472 0.0057,0.03038 0.0098,0.04687 0.0081,0.03298 0.01993,0.07319 0.03516,0.123047 0.03046,0.09971 0.07525,0.235755 0.132812,0.404297 0.115122,0.337083 0.281148,0.804113 0.480469,1.357422 0.398642,1.106617 0.930506,2.558797 1.458984,4.009765 0.528479,1.450969 1.052979,2.900154 1.433594,3.996094 0.190307,0.54797 0.344561,1.007719 0.445312,1.333984 0.04754,0.153953 0.08024,0.272054 0.101563,0.359375 -0.08767,-0.01983 -0.206577,-0.0508 -0.361328,-0.0957 -0.32794,-0.09516 -0.790654,-0.240962 -1.341797,-0.421875 -1.102286,-0.361826 -2.559742,-0.861634 -4.019531,-1.365234 -1.45979,-0.5036 -2.921887,-1.010956 -4.035157,-1.390625 -0.556634,-0.189835 -1.026232,-0.347688 -1.365234,-0.457031 -0.169501,-0.05467 -0.30603,-0.0982 -0.40625,-0.126953 -0.05011,-0.01438 -0.08993,-0.02368 -0.123047,-0.03125 -0.01656,-0.0038 -0.03211,-0.0076 -0.04687,-0.0098 -0.01476,-0.0022 -0.02426,-0.0061 -0.06055,0 -0.03628,0.0061 -0.04339,0.01267 -0.05664,0.01953 -0.01325,0.0069 -0.02659,0.01447 -0.04102,0.02344 -0.02885,0.01792 -0.06276,0.04237 -0.105469,0.07227 -0.08542,0.05979 -0.201244,0.143175 -0.34375,0.25 -0.28501,0.213652 -0.677944,0.516406 -1.142578,0.876953 -0.929268,0.721095 -2.146637,1.675967 -3.363281,2.626954 -1.216644,0.950986 -2.432737,1.897006 -3.357422,2.597656 -0.462342,0.350325 -0.851696,0.639295 -1.130859,0.835937 -0.132155,0.09309 -0.235996,0.161729 -0.3125,0.208985 -0.0083,-0.08953 -0.01441,-0.21171 -0.01953,-0.373047 -0.01084,-0.341296 -0.01346,-0.826177 -0.01172,-1.40625 0.0035,-1.160146 0.02684,-2.702131 0.05469,-4.246094 0.02785,-1.543963 0.0591,-3.091472 0.07617,-4.267578 0.0085,-0.588053 0.01444,-1.083254 0.01367,-1.439453 -3.83e-4,-0.178099 -0.0022,-0.319628 -0.0059,-0.423828 -0.0018,-0.0521 -0.0048,-0.09507 -0.0078,-0.128907 -0.0015,-0.01692 -0.0034,-0.03216 -0.0059,-0.04687 -0.0025,-0.01471 -6e-4,-0.02401 -0.01758,-0.05664 -0.01698,-0.03263 -0.02649,-0.03834 -0.03711,-0.04883 -0.01062,-0.01048 -0.02217,-0.0203 -0.03516,-0.03125 -0.02596,-0.0219 -0.05798,-0.0487 -0.09961,-0.08008 -0.08326,-0.06276 -0.200069,-0.145528 -0.345704,-0.248047 -0.291268,-0.205039 -0.699066,-0.485929 -1.185546,-0.816407 -0.972962,-0.660955 -2.258657,-1.523492 -3.539063,-2.386718 -1.280405,-0.863227 -2.555711,-1.725757 -3.507812,-2.388672 -0.476051,-0.331457 -0.871248,-0.613625 -1.144532,-0.81836 -0.128969,-0.09662 -0.226343,-0.172357 -0.294922,-0.230468 0.08258,-0.03547 0.198206,-0.08216 0.34961,-0.136719 0.321243,-0.115772 0.781762,-0.267721 1.333984,-0.445313 1.104444,-0.355183 2.575732,-0.809143 4.052735,-1.259765 1.477002,-0.450622 2.958213,-0.898889 4.082031,-1.246094 0.561909,-0.173602 1.034518,-0.320841 1.373047,-0.431641 0.169264,-0.0554 0.306315,-0.101073 0.404297,-0.136718 0.04899,-0.01782 0.0879,-0.03353 0.11914,-0.04687 0.01562,-0.0067 0.02779,-0.01261 0.04102,-0.01953 0.01322,-0.0069 0.02499,-0.0089 0.05078,-0.03516 0.02579,-0.02623 0.02651,-0.03744 0.0332,-0.05078 0.0067,-0.01334 0.01313,-0.02724 0.01953,-0.04297 0.01281,-0.03146 0.02794,-0.06985 0.04492,-0.11914 0.03396,-0.09858 0.07641,-0.236064 0.128907,-0.40625 0.104996,-0.340373 0.246184,-0.814113 0.410156,-1.378907 0.327944,-1.129588 0.750471,-2.619026 1.175781,-4.103515 0.42531,-1.48449 0.853199,-2.965818 1.189453,-4.0761721 0.168127,-0.5551769 0.313564,-1.0166688 0.423828,-1.3398438 0.05196,-0.15229 0.09485,-0.2683916 0.128907,-0.3515625 z"
         id="path22" />
      <path
         style="fill:#ffffff;stroke-linecap:round;stroke-linejoin:round;stroke-miterlimit:3.1;paint-order:stroke markers fill"
         d="m 95.028261,39.424195 c -0.175544,0.178571 -11.644035,-3.960652 -11.891014,-3.919368 -0.246979,0.04128 -9.745802,7.685356 -9.969879,7.573585 -0.224076,-0.11177 0.1686,-12.298044 0.05302,-12.520178 -0.115584,-0.222133 -10.320826,-6.893902 -10.283769,-7.141551 0.03706,-0.247649 11.748235,-3.639957 11.923779,-3.818528 0.175544,-0.17857 3.36718,-11.946022 3.614159,-11.9873065 0.24698,-0.041284 7.09221,10.0484275 7.316287,10.1601985 0.224076,0.111771 12.401858,-0.489145 12.517442,-0.267012 0.115585,0.222134 -7.365009,9.850227 -7.402066,10.097876 -0.03706,0.247648 4.29759,11.643714 4.122046,11.822284 z"
         id="path23" />
    </g>
    <g
       id="path8">
      <path
         style="stroke-linecap:round;stroke-linejoin:round;stroke-miterlimit:3.1;paint-order:stroke markers fill"
         d="m 65.402344,89.425781 c -15.357569,0 -29.260308,0.510707 -39.328125,1.335938 -5.033909,0.412615 -9.109084,0.904182 -11.931641,1.451172 -1.411278,0.273494 -2.508556,0.560809 -3.263672,0.863281 -0.377558,0.151236 -0.668317,0.303886 -0.875,0.470703 -0.2066826,0.166817 -0.33789,0.358475 -0.3378904,0.570312 -2e-7,0.211838 0.1312081,0.401543 0.3378904,0.56836 0.206683,0.166817 0.497443,0.32142 0.875,0.472656 0.755115,0.302472 1.852394,0.589787 3.263672,0.863281 2.822556,0.54699 6.897732,1.036604 11.931641,1.449219 10.067818,0.825231 23.970554,1.335938 39.328125,1.335938 15.357571,0 29.262259,-0.510707 39.330076,-1.335938 5.03391,-0.412615 9.10713,-0.902229 11.92969,-1.449219 1.41128,-0.273494 2.50856,-0.560809 3.26367,-0.863281 0.37756,-0.151236 0.67027,-0.305839 0.87695,-0.472656 0.20669,-0.166817 0.33594,-0.356522 0.33594,-0.56836 0,-0.211837 -0.12925,-0.403495 -0.33594,-0.570312 -0.20668,-0.166817 -0.49939,-0.319467 -0.87695,-0.470703 -0.75511,-0.302472 -1.85239,-0.589787 -3.26367,-0.863281 -2.82256,-0.54699 -6.89578,-1.038557 -11.92969,-1.451172 C 94.664603,89.936488 80.759913,89.425781 65.402344,89.425781 Z m 0,0.265625 c 15.351709,0 29.251696,0.509649 39.308596,1.333985 5.02845,0.412167 9.09746,0.903701 11.90234,1.447265 1.40244,0.271782 2.48857,0.556736 3.21485,0.847656 0.36313,0.145461 0.63561,0.293978 0.80859,0.433594 0.17298,0.139617 0.23828,0.260475 0.23828,0.363281 0,0.102807 -0.0653,0.223665 -0.23828,0.363282 -0.17298,0.139616 -0.44546,0.28618 -0.80859,0.43164 -0.72628,0.290921 -1.81241,0.577828 -3.21485,0.84961 -2.80488,0.543564 -6.87389,1.033144 -11.90234,1.445312 -10.0569,0.824336 -23.956885,1.335938 -39.308596,1.335938 -15.351711,0 -29.249744,-0.511602 -39.306641,-1.335938 -5.028448,-0.412168 -9.097462,-0.901748 -11.902344,-1.445312 -1.40244,-0.271782 -2.488567,-0.558689 -3.214843,-0.84961 -0.363139,-0.14546 -0.635612,-0.292024 -0.808594,-0.43164 -0.1729818,-0.139617 -0.2382815,-0.260475 -0.2382814,-0.363282 2e-7,-0.102806 0.065299,-0.223664 0.2382814,-0.363281 0.172982,-0.139616 0.445455,-0.288133 0.808594,-0.433594 0.726277,-0.29092 1.812402,-0.575874 3.214843,-0.847656 2.804882,-0.543564 6.873896,-1.035098 11.902344,-1.447265 10.056897,-0.824336 23.954933,-1.333985 39.306641,-1.333985 z"
         id="path24" />
      <path
         style="fill:#ffffff;stroke-linecap:round;stroke-linejoin:round;stroke-miterlimit:3.1;paint-order:stroke markers fill"
         d="M 121.00721,94.116714 A 55.604069,4.5577106 0 0 1 65.403137,98.674425 55.604069,4.5577106 0 0 1 9.7990685,94.116714 55.604069,4.5577106 0 0 1 65.403137,89.559004 55.604069,4.5577106 0 0 1 121.00721,94.116714 Z"
         id="path25" />
    </g>
    <g
       id="path8-8">
      <path
         style="stroke-linecap:round;stroke-linejoin:round;stroke-miterlimit:3.1;paint-order:stroke markers fill"
         d="m 65.664062,103.25781 c -12.148971,0 -23.147259,0.51045 -31.113281,1.33594 -3.983011,0.41275 -7.206934,0.90324 -9.443359,1.45117 -1.118213,0.27397 -1.987785,0.56035 -2.589844,0.86524 -0.30103,0.15244 -0.535515,0.30948 -0.701172,0.47851 -0.165657,0.16904 -0.265624,0.35815 -0.265625,0.5586 1e-6,0.20044 0.09997,0.38955 0.265625,0.55859 0.165657,0.16904 0.400142,0.32607 0.701172,0.47852 0.602059,0.30489 1.471631,0.59127 2.589844,0.86523 2.236425,0.54793 5.460348,1.03842 9.443359,1.45117 7.966022,0.8255 18.96431,1.33594 31.113281,1.33594 12.148972,0 23.149213,-0.51044 31.115235,-1.33594 3.983013,-0.41275 7.206933,-0.90324 9.443363,-1.45117 1.11821,-0.27396 1.98778,-0.56034 2.58984,-0.86523 0.30103,-0.15245 0.53551,-0.30948 0.70117,-0.47852 0.16566,-0.16904 0.26563,-0.35815 0.26563,-0.55859 0,-0.20045 -0.1,-0.38956 -0.26563,-0.5586 -0.16566,-0.16903 -0.40014,-0.32607 -0.70117,-0.47851 -0.60206,-0.30489 -1.47163,-0.59127 -2.58984,-0.86524 -2.23643,-0.54793 -5.46035,-1.03842 -9.443363,-1.45117 -7.966022,-0.82549 -18.966263,-1.33594 -31.115235,-1.33594 z m 0,0.26367 c 12.141564,0 23.135593,0.50992 31.087891,1.33399 3.976147,0.41203 7.191467,0.90269 9.406247,1.44531 1.1074,0.27131 1.96546,0.5572 2.53516,0.8457 0.28485,0.14426 0.49816,0.29034 0.63281,0.42774 0.13465,0.1374 0.18945,0.25884 0.18946,0.37305 -1e-5,0.1142 -0.0548,0.23564 -0.18946,0.37304 -0.13465,0.1374 -0.34796,0.28349 -0.63281,0.42774 -0.5697,0.2885 -1.42776,0.57439 -2.53516,0.8457 -2.21478,0.54263 -5.4301,1.03328 -9.406247,1.44531 -7.952298,0.82407 -18.946327,1.33399 -31.087891,1.33399 -12.141562,0 -23.13364,-0.50992 -31.085937,-1.33399 -3.976149,-0.41203 -7.191463,-0.90268 -9.40625,-1.44531 -1.107393,-0.27131 -1.965458,-0.5572 -2.535156,-0.8457 -0.284849,-0.14425 -0.498161,-0.29034 -0.632813,-0.42774 -0.134652,-0.1374 -0.189453,-0.25884 -0.189453,-0.37304 0,-0.11421 0.0548,-0.23565 0.189453,-0.37305 0.134652,-0.1374 0.347964,-0.28348 0.632813,-0.42774 0.569698,-0.2885 1.427763,-0.57439 2.535156,-0.8457 2.214787,-0.54262 5.430101,-1.03328 9.40625,-1.44531 7.952297,-0.82407 18.944375,-1.33399 31.085937,-1.33399 z"
         id="path26" />
      <path
         style="fill:#ffffff;stroke-linecap:round;stroke-linejoin:round;stroke-miterlimit:3.1;paint-order:stroke markers fill"
         d="m 109.64694,107.9473 a 43.981907,4.5577106 0 0 1 -43.981909,4.55771 43.981907,4.5577106 0 0 1 -43.981906,-4.55771 43.981907,4.5577106 0 0 1 43.981906,-4.55771 43.981907,4.5577106 0 0 1 43.981909,4.55771 z"
         id="path27" />
    </g>
    <g
       id="path8-8-3">
      <path
         style="stroke-linecap:round;stroke-linejoin:round;stroke-miterlimit:3.1;paint-order:stroke markers fill"
         d="m 65.974609,114.33789 c -7.746061,0 -14.758857,0.5114 -19.841797,1.33789 -2.541469,0.41325 -4.599744,0.90401 -6.033203,1.45508 -0.716729,0.27553 -1.277424,0.56467 -1.667968,0.875 -0.390544,0.31033 -0.619141,0.65383 -0.619141,1.02344 0,0.3696 0.228597,0.71115 0.619141,1.02148 0.390544,0.31033 0.951239,0.59947 1.667968,0.875 1.433459,0.55107 3.491734,1.04379 6.033203,1.45703 5.08294,0.8265 12.095736,1.33594 19.841797,1.33594 7.746061,0 14.756905,-0.50944 19.839844,-1.33594 2.54147,-0.41324 4.601698,-0.90596 6.035156,-1.45703 0.71673,-0.27553 1.277425,-0.56467 1.667969,-0.875 0.390544,-0.31033 0.61914,-0.65188 0.619141,-1.02148 -10e-7,-0.36961 -0.228597,-0.71311 -0.619141,-1.02344 -0.390544,-0.31033 -0.951239,-0.59947 -1.667969,-0.875 -1.433458,-0.55107 -3.493686,-1.04183 -6.035156,-1.45508 -5.082939,-0.82649 -12.093783,-1.33789 -19.839844,-1.33789 z m 0,0.26563 c 7.734436,0 14.736932,0.50895 19.798828,1.33203 2.530949,0.41153 4.577145,0.90192 5.980469,1.4414 0.701662,0.26975 1.241433,0.55288 1.597656,0.83594 0.356224,0.28306 0.519532,0.55672 0.519532,0.81641 0,0.25968 -0.163308,0.53139 -0.519532,0.81445 -0.356223,0.28306 -0.895994,0.5662 -1.597656,0.83594 -1.403324,0.53948 -3.44952,1.02987 -5.980469,1.4414 -5.061896,0.82308 -12.064392,1.33203 -19.798828,1.33204 -7.734435,0 -14.736931,-0.50896 -19.798828,-1.33204 -2.530948,-0.41153 -4.579097,-0.90192 -5.982422,-1.4414 -0.701662,-0.26974 -1.241432,-0.55288 -1.597656,-0.83594 -0.356223,-0.28306 -0.519531,-0.55477 -0.519531,-0.81445 0,-0.25969 0.163308,-0.53335 0.519531,-0.81641 0.356224,-0.28306 0.895994,-0.56619 1.597656,-0.83594 1.403325,-0.53948 3.451474,-1.02987 5.982422,-1.4414 5.061897,-0.82308 12.064393,-1.33203 19.798828,-1.33203 z"
         id="path28" />
      <path
         style="fill:#ffffff;stroke-linecap:round;stroke-linejoin:round;stroke-miterlimit:3.1;paint-order:stroke markers fill"
         d="m 94.003942,119.0285 a 28.029921,4.5577106 0 0 1 -28.02992,4.55771 28.029921,4.5577106 0 0 1 -28.029921,-4.55771 28.029921,4.5577106 0 0 1 28.029921,-4.55771 28.029921,4.5577106 0 0 1 28.02992,4.55771 z"
         id="path29" />
    </g>
  </g>
</svg>
